name analog
datacolumns 19
datarows 27
range 0.164 0.177
endheader
time	ground_force_vx	ground_force_vy	ground_force_vz	ground_force_px	ground_force_py	ground_force_pz	l_ground_force_vx	l_ground_force_vy	l_ground_force_vz	l_ground_force_px	l_ground_force_py	l_ground_force_pz	ground_torque_x	ground_torque_y	ground_torque_z	l_ground_torque_x	l_ground_torque_y	l_ground_torque_z
0.164	-0.0	-0.0	-0.0	-6.3726654052734375	11.178285598754885	-134.00848388671875	8.047453880310059	-10.485163688659668	-369.7035217285156	-0.0	-0.0	-0.0	-0.0	-0.0	-0.0	121729.8203125	-28746.8203125	3232.360595703125
0.1645	-0.0	-0.0	-0.0	-6.231475353240967	11.344855308532717	-131.78384399414062	8.300700187683105	-10.674495697021484	-370.7990112304688	-0.0	-0.0	-0.0	-0.0	-0.0	-0.0	122165.375	-29006.71875	3236.683349609375
0.165	-0.0	-0.0	-0.0	-6.372395515441895	10.88696575164795	-131.0784912109375	8.402162551879883	-10.295817375183104	-370.4498901367188	-0.0	-0.0	-0.0	-0.0	-0.0	-0.0	122351.5703125	-29001.07421875	3300.29052734375
0.1655	-0.0	-0.0	-0.0	-6.525203704833984	11.001298904418944	-130.17263793945312	8.439918518066406	-10.396631240844728	-372.393310546875	-0.0	-0.0	-0.0	-0.0	-0.0	-0.0	122547.2109375	-29256.26171875	3330.096435546875
0.166	-0.0	-0.0	-0.0	-6.231897354125977	10.670159339904783	-129.06185913085938	8.466278076171875	-10.245315551757812	-374.0376892089844	-0.0	-0.0	-0.0	-0.0	-0.0	-0.0	123237.453125	-29130.09375	3461.15283203125
0.1665	-0.0	-0.0	-0.0	-6.219169616699219	10.33966827392578	-126.99402618408205	9.098189353942873	-10.00578498840332	-375.3910217285156	-0.0	-0.0	-0.0	-0.0	-0.0	-0.0	123753.1796875	-29518.021484375	3440.45166015625
0.167	-0.0	-0.0	-0.0	-6.040670871734619	10.44052505493164	-125.02569580078124	9.085963249206545	-9.956774711608888	-377.1380310058594	-0.0	-0.0	-0.0	-0.0	-0.0	-0.0	124458.6484375	-29833.62890625	3457.489013671875
0.1675	-0.0	-0.0	-0.0	-6.117729663848877	10.05965805053711	-124.52288818359376	9.340319633483888	-9.9547758102417	-378.6273193359375	-0.0	-0.0	-0.0	-0.0	-0.0	-0.0	124657.4765625	-29910.92578125	3555.209716796875
0.168	-0.0	-0.0	-0.0	-6.268547058105469	9.46167278289795	-122.7574691772461	9.466306686401367	-9.99176788330078	-380.564208984375	-0.0	-0.0	-0.0	-0.0	-0.0	-0.0	125020.59375	-30235.576171875	3694.97998046875
0.1685	-0.0	-0.0	-0.0	-5.796230316162109	9.499454498291016	-122.7020263671875	10.08721160888672	-9.678473472595217	-382.917724609375	-0.0	-0.0	-0.0	-0.0	-0.0	-0.0	125588.3125	-30508.341796875	3683.056640625
0.169	-0.0	-0.0	-0.0	-6.259138107299805	9.44782257080078	-121.5849609375	10.253503799438477	-9.450420379638672	-382.91748046875	-0.0	-0.0	-0.0	-0.0	-0.0	-0.0	126321.0	-30639.6796875	3679.53271484375
0.1695	-0.0	-0.0	-0.0	-6.1035637855529785	8.83516788482666	-120.64006805419922	9.950733184814451	-9.512897491455078	-384.76507568359375	-0.0	-0.0	-0.0	-0.0	-0.0	-0.0	126449.6328125	-30546.55859375	3735.083984375
0.17	-0.0	-0.0	-0.0	-5.835824012756348	8.634552955627441	-119.22777557373048	10.44186019897461	-9.164203643798828	-385.81256103515625	-0.0	-0.0	-0.0	-0.0	-0.0	-0.0	126865.953125	-30429.697265625	3882.389404296875
0.1705	-0.0	-0.0	-0.0	-5.903039932250977	8.40432357788086	-119.87460327148438	10.504449844360352	-9.663480758666992	-385.6685791015625	-0.0	-0.0	-0.0	-0.0	-0.0	-0.0	126994.6328125	-30330.29296875	3941.616943359375
0.171	-0.0	-0.0	-0.0	-6.270902633666992	8.215439796447754	-117.75491333007812	10.734004974365234	-9.482009887695312	-386.3674926757813	-0.0	-0.0	-0.0	-0.0	-0.0	-0.0	127089.9140625	-30341.66015625	3945.238037109375
0.1715	-0.0	-0.0	-0.0	-6.155525207519531	8.021736145019531	-116.36224365234376	10.191651344299316	-9.725430488586426	-387.41546630859375	-0.0	-0.0	-0.0	-0.0	-0.0	-0.0	127302.171875	-30501.169921875	3784.248291015625
0.17200000000000001	-0.0	-0.0	-0.0	-6.171481609344482	8.001083374023438	-114.67938995361328	10.389068603515623	-9.653216361999512	-388.7091369628906	-0.0	-0.0	-0.0	-0.0	-0.0	-0.0	127714.75	-30610.4609375	3810.717529296875
0.17250000000000001	-0.0	-0.0	-0.0	-7.110478401184082	7.638875961303711	-114.80769348144533	10.050657272338867	-9.264123916625977	-389.12408447265625	-0.0	-0.0	-0.0	-0.0	-0.0	-0.0	127752.3828125	-30607.517578125	3896.34912109375
0.17300000000000001	-0.0	-0.0	-0.0	-6.647866725921631	7.879800319671631	-112.41584014892578	10.431965827941896	-9.26431369781494	-389.9649353027344	-0.0	-0.0	-0.0	-0.0	-0.0	-0.0	128011.75	-30556.357421875	3846.912353515625
0.17350000000000002	-0.0	-0.0	-0.0	-7.0644354820251465	7.665214538574219	-113.82886505126952	10.628087997436523	-8.920490264892578	-390.14306640625	-0.0	-0.0	-0.0	-0.0	-0.0	-0.0	128223.25	-30674.125	3772.6259765625
0.17400000000000002	-0.0	-0.0	-0.0	-7.01153564453125	7.467897891998291	-112.06317901611328	10.361741065979004	-8.902345657348633	-391.9928588867188	-0.0	-0.0	-0.0	-0.0	-0.0	-0.0	128316.1796875	-30281.072265625	3739.72998046875
0.17450000000000002	-0.0	-0.0	-0.0	-7.343386650085449	6.898995399475098	-110.01854705810548	10.654245376586914	-8.823256492614746	-391.572998046875	-0.0	-0.0	-0.0	-0.0	-0.0	-0.0	128727.3984375	-30427.677734375	3743.00537109375
0.17500000000000002	-0.0	-0.0	-0.0	-6.905040740966797	6.82724142074585	-111.35733795166016	10.325835227966309	-8.779075622558594	-392.7612609863281	-0.0	-0.0	-0.0	-0.0	-0.0	-0.0	128943.7421875	-30212.998046875	3704.202880859375
0.17550000000000002	-0.0	-0.0	-0.0	-7.226051330566406	6.934385299682617	-107.89627075195312	10.38769245147705	-8.797065734863281	-394.2593383789063	-0.0	-0.0	-0.0	-0.0	-0.0	-0.0	129116.8828125	-30273.0859375	3686.346435546875
0.176	-0.0	-0.0	-0.0	-6.824349403381348	6.899100303649902	-109.27548217773438	10.094590187072754	-8.725488662719727	-393.9087219238281	-0.0	-0.0	-0.0	-0.0	-0.0	-0.0	129364.046875	-30137.90625	3757.172607421875
0.1765	-0.0	-0.0	-0.0	-7.1368408203125	7.3624138832092285	-108.6343002319336	10.121167182922363	-8.505621910095215	-393.8110046386719	-0.0	-0.0	-0.0	-0.0	-0.0	-0.0	129489.9140625	-29990.138671875	3683.378662109375
0.177	-0.0	-0.0	-0.0	-6.663849353790283	6.970700263977051	-107.01351928710938	10.209715843200684	-8.205976486206055	-395.4514770507813	-0.0	-0.0	-0.0	-0.0	-0.0	-0.0	129494.4140625	-29794.373046875	3680.85107421875
